<svg xmlns="http://www.w3.org/2000/svg" viewBox="0 0 195.89 227.86"><defs><style>.cls-1,.cls-5{fill:#f39200;stroke:#f39200;}.cls-1,.cls-2,.cls-3,.cls-4,.cls-5,.cls-6,.cls-7,.cls-8{stroke-miterlimit:10;}.cls-1,.cls-2,.cls-3,.cls-4{stroke-width:3px;}.cls-2,.cls-7{fill:#1d1d1b;}.cls-2,.cls-3,.cls-7,.cls-8{stroke:#1d1d1b;}.cls-3,.cls-4,.cls-6,.cls-8{fill:#fff;}.cls-4,.cls-6{stroke:#fff;}</style></defs><title>Element 1</title><g id="Ebene_2" data-name="Ebene 2"><g id="Ebene_1-2" data-name="Ebene 1"><g id="Ebene_6" data-name="Ebene 6"><path class="cls-1" d="M87,220.75c0,8.09-6.56,5.05-14.66,5.05s-14.65,3-14.65-5.05A14.66,14.66,0,1,1,87,220C87,220.24,87,220.49,87,220.75Z"/><path class="cls-1" d="M137.79,220.75c0,8.09-6.56,5.05-14.66,5.05s-14.65,3-14.65-5.05a14.66,14.66,0,1,1,29.31-.77C137.8,220.24,137.8,220.49,137.79,220.75Z"/><path class="cls-2" d="M29.43,102.69l-27,35.39s-4.5,10.25,6.3,7.3,25.82-7.22,25.82-7.22Z"/><path class="cls-2" d="M166.46,102.69l27,35.39s4.5,10.25-6.3,7.3-25.82-7.22-25.82-7.22Z"/><circle class="cls-3" cx="97.72" cy="135.35" r="75.86"/><path class="cls-2" d="M97.72,135.06l-26.63,71a75.93,75.93,0,0,1-43.92-43.15c-15.29-38.71,4-83.14,42.67-98.43s83.14,4,98.43,42.67-4,83.14-42.68,98.43Z"/><circle class="cls-4" cx="97.61" cy="135.06" r="24.86"/><path class="cls-2" d="M149.6,62.83c0,29.92-23.23,38.4-51.88,38.4s-51.89-8.48-51.89-38.4S69.06,8.66,97.72,8.66,149.6,32.91,149.6,62.83Z"/><path class="cls-5" d="M106.24,60.76a1.18,1.18,0,0,1,1.18,1.18,1.24,1.24,0,0,1-.18.62L98.16,76.91s-.33.88-.89,0L88.2,62.57a1.18,1.18,0,0,1,1-1.81Z"/><circle class="cls-6" cx="80.23" cy="45.96" r="6.67"/><circle class="cls-6" cx="115.21" cy="45.96" r="6.67"/><path class="cls-7" d="M98.83,8.07V.92A.42.42,0,0,1,99.25.5a.41.41,0,0,1,.31.14c1.63,1.83,5.24,6.24,3.45,7.43A3.61,3.61,0,0,1,98.83,8.07Z"/><path class="cls-7" d="M98.83,7.71,95.9,2.37a1,1,0,0,0-1.34-.45,1,1,0,0,0-.42.4,11,11,0,0,0-1.48,4,8.48,8.48,0,0,0,0,2.36L92,8.75Z"/></g><ellipse class="cls-7" cx="115.21" cy="48.58" rx="4.43" ry="5.37"/><ellipse class="cls-7" cx="80.23" cy="48.58" rx="4.43" ry="5.37"/><circle class="cls-8" cx="81.98" cy="47.7" r="1.75"/><circle class="cls-8" cx="116.96" cy="47.7" r="1.75"/></g></g></svg>